<mxfile host="app.diagrams.net" agent="Mozilla/5.0 (Windows NT 10.0; Win64; x64; rv:144.0) Gecko/20100101 Firefox/144.0" version="28.2.7">
  <diagram name="Page-1" id="EYg3MqegUCzYYS_CXkTB">
    <mxGraphModel dx="1092" dy="565" grid="1" gridSize="10" guides="1" tooltips="1" connect="1" arrows="1" fold="1" page="1" pageScale="1" pageWidth="827" pageHeight="1169" math="0" shadow="0">
      <root>
        <mxCell id="0" />
        <mxCell id="1" parent="0" />
        <mxCell id="wHHLx8FjQf187PXlfKUF-98" value="" style="points=[[0.145,0.145,0],[0.5,0,0],[0.855,0.145,0],[1,0.5,0],[0.855,0.855,0],[0.5,1,0],[0.145,0.855,0],[0,0.5,0]];shape=mxgraph.bpmn.event;html=1;verticalLabelPosition=bottom;labelBackgroundColor=#ffffff;verticalAlign=top;align=center;perimeter=ellipsePerimeter;outlineConnect=0;aspect=fixed;outline=standard;symbol=general;strokeColor=#0F8B8D;fontColor=#143642;fillColor=#FAE5C7;" vertex="1" parent="1">
          <mxGeometry x="100" y="170" width="50" height="50" as="geometry" />
        </mxCell>
        <mxCell id="wHHLx8FjQf187PXlfKUF-101" value="" style="points=[[0.145,0.145,0],[0.5,0,0],[0.855,0.145,0],[1,0.5,0],[0.855,0.855,0],[0.5,1,0],[0.145,0.855,0],[0,0.5,0]];shape=mxgraph.bpmn.event;html=1;verticalLabelPosition=bottom;labelBackgroundColor=#ffffff;verticalAlign=top;align=center;perimeter=ellipsePerimeter;outlineConnect=0;aspect=fixed;outline=eventNonint;symbol=timer;strokeColor=#2D7600;fontColor=#ffffff;fillColor=#60a917;" vertex="1" parent="1">
          <mxGeometry x="225" y="170" width="50" height="50" as="geometry" />
        </mxCell>
        <mxCell id="wHHLx8FjQf187PXlfKUF-102" value="30mn" style="text;html=1;whiteSpace=wrap;strokeColor=none;fillColor=none;align=center;verticalAlign=middle;rounded=0;fontColor=#143642;" vertex="1" parent="1">
          <mxGeometry x="386" y="110" width="55" height="30" as="geometry" />
        </mxCell>
        <mxCell id="wHHLx8FjQf187PXlfKUF-103" value="attente non bloquante" style="shape=note2;boundedLbl=1;whiteSpace=wrap;html=1;size=25;verticalAlign=top;align=center;strokeColor=#006EAF;fontColor=#ffffff;fillColor=#1ba1e2;" vertex="1" parent="1">
          <mxGeometry x="80" y="65" width="210" height="60" as="geometry" />
        </mxCell>
        <mxCell id="wHHLx8FjQf187PXlfKUF-104" value="" style="endArrow=none;dashed=1;html=1;dashPattern=1 3;strokeWidth=2;rounded=0;strokeColor=#A8201A;fontColor=#143642;fillColor=#FAE5C7;entryX=0.35;entryY=0.939;entryDx=0;entryDy=0;entryPerimeter=0;" edge="1" parent="1" source="wHHLx8FjQf187PXlfKUF-101" target="wHHLx8FjQf187PXlfKUF-103">
          <mxGeometry width="50" height="50" relative="1" as="geometry">
            <mxPoint x="390" y="280" as="sourcePoint" />
            <mxPoint x="440" y="230" as="targetPoint" />
          </mxGeometry>
        </mxCell>
        <mxCell id="wHHLx8FjQf187PXlfKUF-105" value="" style="endArrow=classic;html=1;rounded=0;strokeColor=#A8201A;fontColor=#143642;fillColor=#FAE5C7;exitX=1;exitY=0.5;exitDx=0;exitDy=0;exitPerimeter=0;" edge="1" parent="1" source="wHHLx8FjQf187PXlfKUF-98" target="wHHLx8FjQf187PXlfKUF-101">
          <mxGeometry width="50" height="50" relative="1" as="geometry">
            <mxPoint x="390" y="280" as="sourcePoint" />
            <mxPoint x="440" y="230" as="targetPoint" />
          </mxGeometry>
        </mxCell>
        <mxCell id="wHHLx8FjQf187PXlfKUF-106" value="vérifier les présences" style="points=[[0.25,0,0],[0.5,0,0],[0.75,0,0],[1,0.25,0],[1,0.5,0],[1,0.75,0],[0.75,1,0],[0.5,1,0],[0.25,1,0],[0,0.75,0],[0,0.5,0],[0,0.25,0]];shape=mxgraph.bpmn.task2;whiteSpace=wrap;rectStyle=rounded;size=10;html=1;container=1;expand=0;collapsible=0;taskMarker=abstract;isLoopStandard=1;strokeColor=#0F8B8D;fontColor=#143642;fillColor=#FAE5C7;" vertex="1" parent="1">
          <mxGeometry x="630" y="155" width="150" height="80" as="geometry" />
        </mxCell>
        <mxCell id="wHHLx8FjQf187PXlfKUF-112" style="edgeStyle=orthogonalEdgeStyle;rounded=0;orthogonalLoop=1;jettySize=auto;html=1;entryX=0.5;entryY=0;entryDx=0;entryDy=0;strokeColor=#A8201A;fontColor=#143642;fillColor=#FAE5C7;" edge="1" parent="1" source="wHHLx8FjQf187PXlfKUF-108" target="wHHLx8FjQf187PXlfKUF-111">
          <mxGeometry relative="1" as="geometry" />
        </mxCell>
        <mxCell id="wHHLx8FjQf187PXlfKUF-108" value="" style="points=[[0.25,0.25,0],[0.5,0,0],[0.75,0.25,0],[1,0.5,0],[0.75,0.75,0],[0.5,1,0],[0.25,0.75,0],[0,0.5,0]];shape=mxgraph.bpmn.gateway2;html=1;verticalLabelPosition=bottom;labelBackgroundColor=#ffffff;verticalAlign=top;align=center;perimeter=rhombusPerimeter;outlineConnect=0;outline=none;symbol=none;gwType=exclusive;strokeColor=#0F8B8D;fontColor=#143642;fillColor=#FAE5C7;" vertex="1" parent="1">
          <mxGeometry x="680" y="275" width="50" height="50" as="geometry" />
        </mxCell>
        <mxCell id="wHHLx8FjQf187PXlfKUF-109" value="" style="endArrow=classic;html=1;rounded=0;strokeColor=#A8201A;fontColor=#143642;fillColor=#FAE5C7;exitX=0.5;exitY=1;exitDx=0;exitDy=0;exitPerimeter=0;entryX=0.5;entryY=0;entryDx=0;entryDy=0;entryPerimeter=0;" edge="1" parent="1" source="wHHLx8FjQf187PXlfKUF-106" target="wHHLx8FjQf187PXlfKUF-108">
          <mxGeometry width="50" height="50" relative="1" as="geometry">
            <mxPoint x="540" y="205" as="sourcePoint" />
            <mxPoint x="630" y="205" as="targetPoint" />
          </mxGeometry>
        </mxCell>
        <mxCell id="wHHLx8FjQf187PXlfKUF-111" value="" style="ellipse;shape=doubleEllipse;html=1;dashed=0;whiteSpace=wrap;aspect=fixed;strokeColor=#0F8B8D;fontColor=#143642;fillColor=#FAE5C7;" vertex="1" parent="1">
          <mxGeometry x="870" y="320" width="50" height="50" as="geometry" />
        </mxCell>
        <mxCell id="wHHLx8FjQf187PXlfKUF-113" value="pas d&#39;absence" style="text;html=1;whiteSpace=wrap;strokeColor=none;fillColor=none;align=center;verticalAlign=middle;rounded=0;fontColor=#143642;" vertex="1" parent="1">
          <mxGeometry x="720" y="270" width="140" height="30" as="geometry" />
        </mxCell>
        <mxCell id="wHHLx8FjQf187PXlfKUF-114" value="" style="points=[[0.145,0.145,0],[0.5,0,0],[0.855,0.145,0],[1,0.5,0],[0.855,0.855,0],[0.5,1,0],[0.145,0.855,0],[0,0.5,0]];shape=mxgraph.bpmn.event;html=1;verticalLabelPosition=bottom;labelBackgroundColor=#ffffff;verticalAlign=top;align=center;perimeter=ellipsePerimeter;outlineConnect=0;aspect=fixed;outline=boundNonint;symbol=timer;strokeColor=#C73500;fontColor=#000000;fillColor=#fa6800;" vertex="1" parent="1">
          <mxGeometry x="520" y="167.5" width="55" height="55" as="geometry" />
        </mxCell>
        <mxCell id="wHHLx8FjQf187PXlfKUF-118" style="edgeStyle=orthogonalEdgeStyle;rounded=0;orthogonalLoop=1;jettySize=auto;html=1;strokeColor=#A8201A;fontColor=#143642;fillColor=#FAE5C7;" edge="1" parent="1" target="wHHLx8FjQf187PXlfKUF-114">
          <mxGeometry relative="1" as="geometry">
            <mxPoint x="469" y="195" as="sourcePoint" />
          </mxGeometry>
        </mxCell>
        <mxCell id="wHHLx8FjQf187PXlfKUF-117" style="edgeStyle=orthogonalEdgeStyle;rounded=0;orthogonalLoop=1;jettySize=auto;html=1;entryX=0;entryY=0.5;entryDx=0;entryDy=0;entryPerimeter=0;strokeColor=#A8201A;fontColor=#143642;fillColor=#FAE5C7;" edge="1" parent="1" source="wHHLx8FjQf187PXlfKUF-101">
          <mxGeometry relative="1" as="geometry">
            <mxPoint x="359" y="195" as="targetPoint" />
          </mxGeometry>
        </mxCell>
        <mxCell id="wHHLx8FjQf187PXlfKUF-119" style="edgeStyle=orthogonalEdgeStyle;rounded=0;orthogonalLoop=1;jettySize=auto;html=1;entryX=0;entryY=0.5;entryDx=0;entryDy=0;entryPerimeter=0;strokeColor=#A8201A;fontColor=#143642;fillColor=#FAE5C7;" edge="1" parent="1" source="wHHLx8FjQf187PXlfKUF-114" target="wHHLx8FjQf187PXlfKUF-106">
          <mxGeometry relative="1" as="geometry" />
        </mxCell>
        <mxCell id="wHHLx8FjQf187PXlfKUF-120" value="signaler absence" style="points=[[0.25,0,0],[0.5,0,0],[0.75,0,0],[1,0.25,0],[1,0.5,0],[1,0.75,0],[0.75,1,0],[0.5,1,0],[0.25,1,0],[0,0.75,0],[0,0.5,0],[0,0.25,0]];shape=mxgraph.bpmn.task2;whiteSpace=wrap;rectStyle=rounded;size=10;html=1;container=1;expand=0;collapsible=0;taskMarker=abstract;isLoopStandard=1;strokeColor=#0F8B8D;fontColor=#143642;fillColor=#FAE5C7;" vertex="1" parent="1">
          <mxGeometry x="450" y="260" width="150" height="80" as="geometry" />
        </mxCell>
        <mxCell id="wHHLx8FjQf187PXlfKUF-121" style="edgeStyle=orthogonalEdgeStyle;rounded=0;orthogonalLoop=1;jettySize=auto;html=1;entryX=1;entryY=0.5;entryDx=0;entryDy=0;entryPerimeter=0;strokeColor=#A8201A;fontColor=#143642;fillColor=#FAE5C7;" edge="1" parent="1" source="wHHLx8FjQf187PXlfKUF-108" target="wHHLx8FjQf187PXlfKUF-120">
          <mxGeometry relative="1" as="geometry" />
        </mxCell>
        <mxCell id="wHHLx8FjQf187PXlfKUF-124" value="&lt;div&gt;faire cours&lt;/div&gt;" style="points=[[0.25,0,0],[0.5,0,0],[0.75,0,0],[1,0.25,0],[1,0.5,0],[1,0.75,0],[0.75,1,0],[0.5,1,0],[0.25,1,0],[0,0.75,0],[0,0.5,0],[0,0.25,0]];shape=mxgraph.bpmn.task2;whiteSpace=wrap;rectStyle=rounded;size=10;html=1;container=1;expand=0;collapsible=0;taskMarker=abstract;strokeColor=#0F8B8D;fontColor=#143642;fillColor=#FAE5C7;" vertex="1" parent="1">
          <mxGeometry x="360" y="155" width="110" height="80" as="geometry" />
        </mxCell>
        <mxCell id="wHHLx8FjQf187PXlfKUF-125" value="&lt;div&gt;faire cours&lt;/div&gt;" style="points=[[0.25,0,0],[0.5,0,0],[0.75,0,0],[1,0.25,0],[1,0.5,0],[1,0.75,0],[0.75,1,0],[0.5,1,0],[0.25,1,0],[0,0.75,0],[0,0.5,0],[0,0.25,0]];shape=mxgraph.bpmn.task2;whiteSpace=wrap;rectStyle=rounded;size=10;html=1;container=1;expand=0;collapsible=0;taskMarker=abstract;strokeColor=#0F8B8D;fontColor=#143642;fillColor=#FAE5C7;" vertex="1" parent="1">
          <mxGeometry x="295" y="380" width="110" height="80" as="geometry" />
        </mxCell>
        <mxCell id="wHHLx8FjQf187PXlfKUF-126" value="" style="edgeStyle=orthogonalEdgeStyle;rounded=0;orthogonalLoop=1;jettySize=auto;html=1;strokeColor=#A8201A;fontColor=#143642;fillColor=#FAE5C7;" edge="1" parent="1" source="wHHLx8FjQf187PXlfKUF-120" target="wHHLx8FjQf187PXlfKUF-122">
          <mxGeometry relative="1" as="geometry">
            <mxPoint x="340" y="300" as="targetPoint" />
            <mxPoint x="450" y="300" as="sourcePoint" />
          </mxGeometry>
        </mxCell>
        <mxCell id="wHHLx8FjQf187PXlfKUF-122" value="" style="points=[[0.145,0.145,0],[0.5,0,0],[0.855,0.145,0],[1,0.5,0],[0.855,0.855,0],[0.5,1,0],[0.145,0.855,0],[0,0.5,0]];shape=mxgraph.bpmn.event;html=1;verticalLabelPosition=bottom;labelBackgroundColor=#ffffff;verticalAlign=top;align=center;perimeter=ellipsePerimeter;outlineConnect=0;aspect=fixed;outline=eventNonint;symbol=message;strokeColor=#2D7600;fontColor=#ffffff;fillColor=#60a917;" vertex="1" parent="1">
          <mxGeometry x="320" y="270" width="60" height="60" as="geometry" />
        </mxCell>
        <mxCell id="wHHLx8FjQf187PXlfKUF-129" style="edgeStyle=orthogonalEdgeStyle;rounded=0;orthogonalLoop=1;jettySize=auto;html=1;entryX=0.5;entryY=0;entryDx=0;entryDy=0;entryPerimeter=0;strokeColor=#A8201A;fontColor=#143642;fillColor=#FAE5C7;" edge="1" parent="1" source="wHHLx8FjQf187PXlfKUF-122" target="wHHLx8FjQf187PXlfKUF-125">
          <mxGeometry relative="1" as="geometry" />
        </mxCell>
        <mxCell id="wHHLx8FjQf187PXlfKUF-131" value="formateur" style="text;html=1;whiteSpace=wrap;strokeColor=none;fillColor=none;align=center;verticalAlign=middle;rounded=0;fontColor=#143642;" vertex="1" parent="1">
          <mxGeometry x="40" y="460" width="60" height="30" as="geometry" />
        </mxCell>
        <mxCell id="wHHLx8FjQf187PXlfKUF-133" value="administrateur" style="text;html=1;whiteSpace=wrap;strokeColor=none;fillColor=none;align=center;verticalAlign=middle;rounded=0;fontColor=#143642;" vertex="1" parent="1">
          <mxGeometry x="40" y="630" width="100" height="30" as="geometry" />
        </mxCell>
        <mxCell id="wHHLx8FjQf187PXlfKUF-134" value="contacter particiipant" style="points=[[0.25,0,0],[0.5,0,0],[0.75,0,0],[1,0.25,0],[1,0.5,0],[1,0.75,0],[0.75,1,0],[0.5,1,0],[0.25,1,0],[0,0.75,0],[0,0.5,0],[0,0.25,0]];shape=mxgraph.bpmn.task2;whiteSpace=wrap;rectStyle=rounded;size=10;html=1;container=1;expand=0;collapsible=0;taskMarker=abstract;isLoopStandard=1;strokeColor=#0F8B8D;fontColor=#143642;fillColor=#FAE5C7;" vertex="1" parent="1">
          <mxGeometry x="100" y="530" width="140" height="80" as="geometry" />
        </mxCell>
        <mxCell id="wHHLx8FjQf187PXlfKUF-136" value="" style="endArrow=none;html=1;rounded=0;strokeColor=#A8201A;fontColor=#143642;fillColor=#FAE5C7;" edge="1" parent="1">
          <mxGeometry width="50" height="50" relative="1" as="geometry">
            <mxPoint x="40" y="670" as="sourcePoint" />
            <mxPoint x="40" y="120" as="targetPoint" />
          </mxGeometry>
        </mxCell>
        <mxCell id="wHHLx8FjQf187PXlfKUF-137" value="" style="endArrow=none;dashed=1;html=1;dashPattern=1 3;strokeWidth=2;rounded=0;strokeColor=#A8201A;fontColor=#143642;fillColor=#FAE5C7;" edge="1" parent="1">
          <mxGeometry width="50" height="50" relative="1" as="geometry">
            <mxPoint x="40" y="500" as="sourcePoint" />
            <mxPoint x="1000" y="500" as="targetPoint" />
          </mxGeometry>
        </mxCell>
        <mxCell id="wHHLx8FjQf187PXlfKUF-138" value="" style="endArrow=none;dashed=1;html=1;dashPattern=1 3;strokeWidth=2;rounded=0;strokeColor=#A8201A;fontColor=#143642;fillColor=#FAE5C7;" edge="1" parent="1">
          <mxGeometry width="50" height="50" relative="1" as="geometry">
            <mxPoint x="40" y="670" as="sourcePoint" />
            <mxPoint x="1000" y="670" as="targetPoint" />
          </mxGeometry>
        </mxCell>
        <mxCell id="wHHLx8FjQf187PXlfKUF-139" value="" style="edgeStyle=elbowEdgeStyle;fontSize=12;html=1;endFill=0;startFill=0;endSize=6;startSize=6;dashed=1;dashPattern=1 4;endArrow=openThin;startArrow=none;rounded=0;strokeColor=#A8201A;fontColor=#143642;fillColor=#FAE5C7;exitX=0;exitY=0.5;exitDx=0;exitDy=0;exitPerimeter=0;entryX=0.5;entryY=0;entryDx=0;entryDy=0;entryPerimeter=0;" edge="1" parent="1" source="wHHLx8FjQf187PXlfKUF-122" target="wHHLx8FjQf187PXlfKUF-134">
          <mxGeometry width="160" relative="1" as="geometry">
            <mxPoint x="430" y="530" as="sourcePoint" />
            <mxPoint x="590" y="530" as="targetPoint" />
            <Array as="points">
              <mxPoint x="160" y="460" />
            </Array>
          </mxGeometry>
        </mxCell>
        <mxCell id="wHHLx8FjQf187PXlfKUF-143" style="edgeStyle=orthogonalEdgeStyle;rounded=0;orthogonalLoop=1;jettySize=auto;html=1;entryX=0.5;entryY=1;entryDx=0;entryDy=0;strokeColor=#A8201A;fontColor=#143642;fillColor=#FAE5C7;" edge="1" parent="1" source="wHHLx8FjQf187PXlfKUF-140" target="wHHLx8FjQf187PXlfKUF-111">
          <mxGeometry relative="1" as="geometry">
            <mxPoint x="895" y="340" as="targetPoint" />
          </mxGeometry>
        </mxCell>
        <mxCell id="wHHLx8FjQf187PXlfKUF-140" value="" style="points=[[0.145,0.145,0],[0.5,0,0],[0.855,0.145,0],[1,0.5,0],[0.855,0.855,0],[0.5,1,0],[0.145,0.855,0],[0,0.5,0]];shape=mxgraph.bpmn.event;html=1;verticalLabelPosition=bottom;labelBackgroundColor=#ffffff;verticalAlign=top;align=center;perimeter=ellipsePerimeter;outlineConnect=0;aspect=fixed;outline=boundNonint;symbol=message;strokeColor=#C73500;fontColor=#000000;fillColor=#fa6800;" vertex="1" parent="1">
          <mxGeometry x="525" y="395" width="50" height="50" as="geometry" />
        </mxCell>
        <mxCell id="wHHLx8FjQf187PXlfKUF-141" value="" style="edgeStyle=elbowEdgeStyle;fontSize=12;html=1;endFill=0;startFill=0;endSize=6;startSize=6;dashed=1;dashPattern=1 4;endArrow=openThin;startArrow=none;rounded=0;strokeColor=#A8201A;fontColor=#143642;fillColor=#FAE5C7;entryX=0.5;entryY=1;entryDx=0;entryDy=0;entryPerimeter=0;exitX=1;exitY=0.5;exitDx=0;exitDy=0;exitPerimeter=0;" edge="1" parent="1" source="wHHLx8FjQf187PXlfKUF-134" target="wHHLx8FjQf187PXlfKUF-140">
          <mxGeometry width="160" relative="1" as="geometry">
            <mxPoint x="250" y="640" as="sourcePoint" />
            <mxPoint x="550" y="640" as="targetPoint" />
            <Array as="points">
              <mxPoint x="550" y="580" />
            </Array>
          </mxGeometry>
        </mxCell>
        <mxCell id="wHHLx8FjQf187PXlfKUF-142" style="edgeStyle=orthogonalEdgeStyle;rounded=0;orthogonalLoop=1;jettySize=auto;html=1;entryX=0;entryY=0.5;entryDx=0;entryDy=0;entryPerimeter=0;strokeColor=#A8201A;fontColor=#143642;fillColor=#FAE5C7;" edge="1" parent="1" source="wHHLx8FjQf187PXlfKUF-125" target="wHHLx8FjQf187PXlfKUF-140">
          <mxGeometry relative="1" as="geometry" />
        </mxCell>
      </root>
    </mxGraphModel>
  </diagram>
</mxfile>
